# xmcd
#
# Track frame offsets: 
#        150
#        16422
#        36477
#        52320
#        66027
#        84797
#        104640
#        129662
#        138670
#        154732
#        172162
#        190112
#        204310
#        221637
#        237200
#        255770
#        277792
#        295497
#        313437
#        324327
#
# Disc length: 4594 seconds
#
# Revision: 3
# Processed by: cddbd v1.5.2PL0 Copyright (c) Steve Scherf et al.
# Submitted via: ExactAudioCopy v0.95b4
#
DISCID=2e11f014
DTITLE=Ray Charles - Sings For America
DYEAR=2002
DGENRE=Blues
TTITLE0=America The Beautiful
TTITLE1=Imagine (feat. Harlem Gospel Singers, The)
TTITLE2=Let It Be
TTITLE3=New York's My Home
TTITLE4=Over The Rainbow
TTITLE5=That Lucky Old Sun
TTITLE6=Ol' Man River
TTITLE7=Carry Me Back To My Old Virginny
TTITLE8=Take Me Home, Country Roads
TTITLE9=Ray Reflects On America
TTITLE10=My God And I
TTITLE11=Lift Every Voice And Sing
TTITLE12=There'll Be No Peace Without All Men As One
TTITLE13=Light Out Of Darkness
TTITLE14=Heaven Help Us All
TTITLE15=Abraham, Martin And John
TTITLE16=Hey Mister
TTITLE17=Sail Away
TTITLE18=The Danger Zone
TTITLE19=God Bless America Again (New Recording) (feat. Slash and Billy 
TTITLE19=Preston)
EXTD=YEAR: 2002
EXTT0=
EXTT1=
EXTT2=
EXTT3=
EXTT4=
EXTT5=
EXTT6=
EXTT7=
EXTT8=
EXTT9=
EXTT10=
EXTT11=
EXTT12=
EXTT13=
EXTT14=
EXTT15=
EXTT16=
EXTT17=
EXTT18=
EXTT19=
PLAYORDER=
